<?xml version="1.0" encoding="UTF-8" standalone="no"?>
<!DOCTYPE svg PUBLIC "-//W3C//DTD SVG 1.1//EN" "http://www.w3.org/Graphics/SVG/1.1/DTD/svg11.dtd">
<svg width="100%" height="100%" viewBox="0 0 1818 806" version="1.1" xmlns="http://www.w3.org/2000/svg" xmlns:xlink="http://www.w3.org/1999/xlink" xml:space="preserve" xmlns:serif="http://www.serif.com/" style="fill-rule:evenodd;clip-rule:evenodd;stroke-linejoin:round;stroke-miterlimit:2;">
    <g transform="matrix(1,0,0,1,-275.783,-310.907)">
        <g transform="matrix(0.443417,0,0,0.443417,275.304,310.775)">
            <g transform="matrix(1,0,0,1,350.57,378.567)">
                <g transform="matrix(0.9069,0,0,1.00098,43.848,-0.366246)">
                    <rect x="470.975" y="375.168" width="330.797" height="299.707" style="fill:rgb(0,41,255);"/>
                </g>
                <g transform="matrix(1,0,0,1,5.72053,6.71544)">
                    <circle cx="465.255" cy="518.43" r="149.729" style="fill:rgb(0,41,255);"/>
                </g>
                <g transform="matrix(1,0,0,1,305.179,6.46672)">
                    <circle cx="465.255" cy="518.43" r="149.729" style="fill:rgb(0,41,255);"/>
                </g>
            </g>
            <g transform="matrix(1,0,0,1,687.662,745.429)">
                <g transform="matrix(0.9069,0,0,1.00098,43.848,-0.366246)">
                    <rect x="470.975" y="375.168" width="330.797" height="299.707" style="fill:rgb(0,41,255);"/>
                </g>
                <g transform="matrix(1,0,0,1,5.72053,6.71544)">
                    <circle cx="465.255" cy="518.43" r="149.729" style="fill:rgb(0,41,255);"/>
                </g>
                <g transform="matrix(1,0,0,1,305.179,6.46672)">
                    <circle cx="465.255" cy="518.43" r="149.729" style="fill:rgb(0,41,255);"/>
                </g>
            </g>
            <g transform="matrix(1,0,0,1,11.6924,745.429)">
                <g transform="matrix(0.9069,0,0,1.00098,43.848,-0.366246)">
                    <rect x="470.975" y="375.168" width="330.797" height="299.707" style="fill:rgb(0,41,255);"/>
                </g>
                <g transform="matrix(1,0,0,1,5.72053,6.71544)">
                    <circle cx="465.255" cy="518.43" r="149.729" style="fill:rgb(0,41,255);"/>
                </g>
                <g transform="matrix(1,0,0,1,305.179,6.46672)">
                    <circle cx="465.255" cy="518.43" r="149.729" style="fill:rgb(0,41,255);"/>
                </g>
            </g>
            <g transform="matrix(1,0,0,1,350.57,1129.78)">
                <g transform="matrix(0.9069,0,0,1.00098,43.848,-0.366246)">
                    <rect x="470.975" y="375.168" width="330.797" height="299.707" style="fill:rgb(0,41,255);"/>
                </g>
                <g transform="matrix(1,0,0,1,5.72053,6.71544)">
                    <circle cx="465.255" cy="518.43" r="149.729" style="fill:rgb(0,41,255);"/>
                </g>
                <g transform="matrix(1,0,0,1,305.179,6.46672)">
                    <circle cx="465.255" cy="518.43" r="149.729" style="fill:rgb(0,41,255);"/>
                </g>
            </g>
            <g transform="matrix(1,0,0,1,-320.165,378.567)">
                <g transform="matrix(0.9069,0,0,1.00098,43.848,-0.366246)">
                    <rect x="470.975" y="375.168" width="330.797" height="299.707" style="fill:rgb(0,41,255);"/>
                </g>
                <g transform="matrix(1,0,0,1,5.72053,6.71544)">
                    <circle cx="465.255" cy="518.43" r="149.729" style="fill:rgb(0,41,255);"/>
                </g>
                <g transform="matrix(1,0,0,1,305.179,6.46672)">
                    <circle cx="465.255" cy="518.43" r="149.729" style="fill:rgb(0,41,255);"/>
                </g>
            </g>
            <g transform="matrix(1,0,0,1,11.6924,0.119212)">
                <g transform="matrix(0.9069,0,0,1.00098,43.848,-0.366246)">
                    <rect x="470.975" y="375.168" width="330.797" height="299.707" style="fill:rgb(0,41,255);"/>
                </g>
                <g transform="matrix(1,0,0,1,5.72053,6.71544)">
                    <circle cx="465.255" cy="518.43" r="149.729" style="fill:rgb(0,41,255);"/>
                </g>
                <g transform="matrix(1,0,0,1,305.179,6.46672)">
                    <circle cx="465.255" cy="518.43" r="149.729" style="fill:rgb(0,41,255);"/>
                </g>
            </g>
            <g transform="matrix(1,0,0,1,350.57,-374.871)">
                <g transform="matrix(0.9069,0,0,1.00098,43.848,-0.366246)">
                    <rect x="470.975" y="375.168" width="330.797" height="299.707" style="fill:rgb(0,41,255);"/>
                </g>
                <g transform="matrix(1,0,0,1,5.72053,6.71544)">
                    <circle cx="465.255" cy="518.43" r="149.729" style="fill:rgb(0,41,255);"/>
                </g>
                <g transform="matrix(1,0,0,1,305.179,6.46672)">
                    <circle cx="465.255" cy="518.43" r="149.729" style="fill:rgb(0,41,255);"/>
                </g>
            </g>
            <g transform="matrix(1,0,0,1,687.662,0.119212)">
                <g transform="matrix(0.9069,0,0,1.00098,43.848,-0.366246)">
                    <rect x="470.975" y="375.168" width="330.797" height="299.707" style="fill:rgb(0,41,255);"/>
                </g>
                <g transform="matrix(1,0,0,1,5.72053,6.71544)">
                    <circle cx="465.255" cy="518.43" r="149.729" style="fill:rgb(0,41,255);"/>
                </g>
                <g transform="matrix(1,0,0,1,305.179,6.46672)">
                    <circle cx="465.255" cy="518.43" r="149.729" style="fill:rgb(0,41,255);"/>
                </g>
            </g>
            <g transform="matrix(1,0,0,1,1025.23,378.567)">
                <g transform="matrix(0.9069,0,0,1.00098,43.848,-0.366246)">
                    <rect x="470.975" y="375.168" width="330.797" height="299.707" style="fill:rgb(0,41,255);"/>
                </g>
                <g transform="matrix(1,0,0,1,5.72053,6.71544)">
                    <circle cx="465.255" cy="518.43" r="149.729" style="fill:rgb(0,41,255);"/>
                </g>
                <g transform="matrix(1,0,0,1,305.179,6.46672)">
                    <circle cx="465.255" cy="518.43" r="149.729" style="fill:rgb(0,41,255);"/>
                </g>
            </g>
        </g>
        <g transform="matrix(2.2114,0,0,2.2114,-247.443,-3343.06)">
            <g transform="matrix(200,0,0,200,1069.33,2013.27)">
            </g>
            <text x="418.741px" y="2013.27px" style="font-family:'Bauhaus93', 'Bauhaus 93', fantasy;font-size:200px;fill:rgb(143,143,143);">SISCON</text>
        </g>
    </g>
</svg>
